<?xml version="1.0" encoding="UTF-8" standalone="no"?>
<svg
   xmlns:dc="http://purl.org/dc/elements/1.1/"
   xmlns:cc="http://creativecommons.org/ns#"
   xmlns:rdf="http://www.w3.org/1999/02/22-rdf-syntax-ns#"
   xmlns:svg="http://www.w3.org/2000/svg"
   xmlns="http://www.w3.org/2000/svg"
   xmlns:sodipodi="http://sodipodi.sourceforge.net/DTD/sodipodi-0.dtd"
   xmlns:inkscape="http://www.inkscape.org/namespaces/inkscape"
   width="138.84033mm"
   height="67.983078mm"
   viewBox="0 0 138.84033 67.983078"
   version="1.1"
   id="svg8"
   inkscape:version="1.0.1 (3bc2e813f5, 2020-09-07)"
   sodipodi:docname="bgbroun.svg">
  <defs
     id="defs2" />
  <sodipodi:namedview
     id="base"
     pagecolor="#ffffff"
     bordercolor="#666666"
     borderopacity="1.0"
     inkscape:pageopacity="0.0"
     inkscape:pageshadow="2"
     inkscape:zoom="0.98994949"
     inkscape:cx="249.16266"
     inkscape:cy="74.508869"
     inkscape:document-units="mm"
     inkscape:current-layer="layer1"
     inkscape:document-rotation="0"
     showgrid="false"
     inkscape:window-width="1350"
     inkscape:window-height="728"
     inkscape:window-x="0"
     inkscape:window-y="0"
     inkscape:window-maximized="0" />
  <metadata
     id="metadata5">
    <rdf:RDF>
      <cc:Work
         rdf:about="">
        <dc:format>image/svg+xml</dc:format>
        <dc:type
           rdf:resource="http://purl.org/dc/dcmitype/StillImage" />
        <dc:title></dc:title>
      </cc:Work>
    </rdf:RDF>
  </metadata>
  <g
     inkscape:label="Слой 1"
     inkscape:groupmode="layer"
     id="layer1"
     transform="translate(-36.196175,-107.0713)">
    <g
       id="g949"
       style="fill:#a05a2c;stroke:none">
      <g
         id="g903"
         style="fill:#a05a2c;stroke:none">
        <path
           style="fill:#a05a2c;stroke:none;stroke-width:0.1;stroke-linecap:round"
           id="path876"
           d="m 52.29635,130.77976 c 1.237023,0.039 2.463702,-0.0347 3.690845,-0.19081 1.763636,-0.32652 3.529809,-0.64147 5.293186,-0.97165 1.063114,-0.19436 2.125694,-0.3952 3.178389,-0.64094 0.852167,-0.19892 1.347351,-0.35768 2.189141,-0.50638 0.372531,-0.0658 0.748737,-0.10878 1.123106,-0.16317 3.008482,-0.40219 6.015387,-0.80173 8.987303,-1.42417 1.262745,-0.32099 2.562032,-0.42864 3.852045,-0.57863 1.655448,-0.14935 3.300984,-0.3739 4.937085,-0.66539 1.397167,-0.20159 2.783377,-0.44051 4.16156,-0.75044 1.483336,-0.27724 2.93406,-0.69446 4.349028,-1.21486 1.045294,-0.40369 2.062281,-0.8799 3.068171,-1.37261 0.124744,-0.0621 0.385242,-0.19806 0.545627,-0.26284 0.0063,-0.003 0.02627,-0.004 0.02037,-5.3e-4 -0.589759,0.33788 -1.324864,0.30004 -1.990667,0.41837 0.94384,0.13932 1.874835,0.31289 2.826724,0.41049 0.369183,0.002 0.739428,0.0349 1.107551,0.007 2.524896,-0.19246 4.293316,-1.20862 5.910366,-3.10805 -0.35701,0.50401 -0.75666,0.70243 -1.28108,1.0218 -0.0307,0.0187 0.0669,-0.0265 0.10035,-0.0397 -0.13592,0.0742 -0.29412,0.11229 -0.44112,0.15288 -0.0454,0.0125 -0.18377,0.0406 -0.13738,0.0327 0.34287,-0.0587 0.50905,-0.095 0.81414,-0.15827 1.37319,-0.40977 0.72656,-0.18399 1.57719,-0.51074 0.0453,-0.0174 0.18097,-0.0705 0.1366,-0.0507 -0.15894,0.0708 -0.32603,0.11761 -0.49286,0.16525 0.20991,-0.0428 0.41982,-0.0856 0.62973,-0.12836 9.13002,-2.03672 6.24967,-14.94851 -2.88035,-12.91179 v 0 c 0.0491,-0.007 0.0983,-0.0138 0.14738,-0.0207 -0.60443,0.10684 -0.77374,0.12293 -1.39886,0.29926 -0.23093,0.0651 -0.45764,0.14458 -0.68457,0.22251 -0.1132,0.0389 -0.22415,0.084 -0.33554,0.12782 -0.0129,0.005 -0.0508,0.0219 -0.0373,0.0187 0.21579,-0.0513 0.43007,-0.10882 0.6451,-0.16322 -0.6516,0.13591 -1.82735,0.33644 -2.64379,0.71888 -1.538933,0.65164 -2.791417,1.50824 -3.890716,2.76691 0.303908,-0.24677 0.580316,-0.52815 0.898057,-0.75684 0.950081,-0.68381 2.194626,-0.96613 3.347489,-0.86915 0.3105,0.0983 -0.435173,-0.0617 -0.551304,-0.083 -0.686586,-0.12595 -1.373314,-0.24097 -2.06866,-0.30872 -0.369391,-0.0271 -0.738765,-0.10827 -1.108171,-0.0814 -0.855808,0.0623 -1.706308,0.19478 -2.550609,0.34792 -0.22515,0.0408 -0.432832,0.14902 -0.646113,0.23192 -0.50637,0.19682 -0.996167,0.43296 -1.480667,0.67776 -0.559003,0.30222 -1.15757,0.53762 -1.73728,0.79648 -0.137419,0.051 -0.266055,0.12545 -0.406088,0.16881 -0.7445,0.23054 -1.510054,0.40049 -2.273588,0.55181 -0.359058,0.0814 -0.720283,0.15328 -1.078662,0.23766 -0.05464,0.0129 -0.105507,0.041 -0.161004,0.0494 -0.786251,0.11997 -1.583594,0.17627 -2.361948,0.34961 -1.361938,0.25187 -2.735427,0.41335 -4.114075,0.54323 -1.691968,0.19727 -3.391353,0.36774 -5.04992,0.77414 -2.739056,0.58173 -5.519613,0.90545 -8.290621,1.29674 -0.62657,0.10112 -1.255709,0.18746 -1.879716,0.30337 -1.682586,0.31255 -3.321918,0.83935 -5.020442,1.07736 -1.546019,0.29103 -3.097432,0.55283 -4.638964,0.86574 -0.09615,0.016 -0.19419,0.0232 -0.288464,0.048 -0.01029,0.003 0.03414,0.0212 0.02349,0.0216 -0.545391,0.0249 -1.093822,-0.017 -1.63957,0 -9.354434,0 -9.354434,13.22916 0,13.22916 z" />
        <path
           style="fill:#a05a2c;stroke:none;stroke-width:0.1;stroke-linecap:round"
           id="path878"
           d="m 44.19247,140.79613 c 2.823313,-1.6e-4 5.646166,0.0195 8.468796,-0.0472 3.479115,-0.13078 6.93456,-0.58515 10.39758,-0.91859 2.60654,-0.21421 5.214803,-0.40811 7.821729,-0.61916 2.01526,-0.16847 4.044484,-0.23598 6.047856,-0.52944 0.508273,-0.0745 1.012677,-0.17328 1.519016,-0.25991 2.420736,-0.35797 4.720952,-1.18786 7.046851,-1.90964 2.106536,-0.54207 4.243866,-0.96588 6.398215,-1.26632 2.313657,-0.23758 4.625509,-0.48969 6.937825,-0.73941 1.018108,-0.14714 2.032032,-0.32878 3.033812,-0.5631 0.94687,-0.22148 0.36398,-0.11585 1.03746,-0.22644 2.23088,-0.43428 4.53431,-0.36362 6.79396,-0.35139 2.63356,0.0143 5.11345,0.066 7.74719,0.11228 5.02632,0.0628 10.05172,0.26841 15.0787,0.27152 1.5412,-0.0295 3.09587,-0.13482 4.59549,-0.51651 0.95702,-0.24359 1.15148,-0.34205 2.03085,-0.67297 1.56313,-0.6234 2.98754,-1.52349 4.35548,-2.49191 0.48266,-0.34797 0.96725,-0.69279 1.44553,-1.04666 7.47108,-5.62923 -0.48986,-16.19495 -7.96094,-10.56571 v 0 c -0.35915,0.31861 -0.80726,0.53895 -1.1752,0.8483 -0.47874,0.34937 -0.96444,0.68998 -1.50062,0.94232 -0.034,0.0183 -0.0737,0.0286 -0.10192,0.0549 -0.007,0.007 0.029,0.0172 0.0202,0.0213 -0.51794,0.2421 -1.17334,0.11583 -1.71086,0.19773 -4.9488,0.005 -9.8963,-0.21764 -14.84451,-0.26949 -2.32817,-0.0408 -5.72239,-0.10898 -8.04408,-0.11416 -3.07621,-0.007 -6.18802,-0.0214 -9.21842,0.58753 -1.004708,0.20186 -1.996528,0.4491 -3.005363,0.63003 -2.46429,0.26716 -4.929182,0.52667 -7.393181,0.79669 -2.844593,0.41619 -5.675394,0.95597 -8.446521,1.72853 -1.797793,0.55967 -3.564853,1.23783 -5.43615,1.51771 -2.084091,0.39733 -4.209225,0.45928 -6.319967,0.6283 -2.673829,0.21724 -5.349227,0.41411 -8.022482,0.63697 -3.149327,0.30425 -6.291781,0.71451 -9.453769,0.86151 -2.713691,0.0702 -5.428069,0.0374 -8.142509,0.0432 -9.354434,0 -9.354434,13.22917 0,13.22917 z" />
        <path
           style="fill:#a05a2c;stroke:none;stroke-width:0.1;stroke-linecap:round"
           id="path880"
           d="m 46.983467,150.93598 c 0.127582,-0.0813 0.252746,-0.16646 0.382749,-0.2438 0.01492,-0.009 -0.0218,0.0277 -0.03608,0.0376 -0.08015,0.0555 -0.191325,0.0772 -0.246179,0.15783 -0.02778,0.0408 0.099,-0.004 0.147553,-0.0129 0.186515,-0.0344 0.371303,-0.0776 0.556829,-0.11702 0.295352,-0.0627 0.590534,-0.12628 0.885801,-0.18941 1.672542,-0.32451 3.316153,-0.75752 4.943295,-1.25862 0.853739,-0.24019 1.658554,-0.63877 2.512171,-0.87676 0.05934,-0.0165 0.59781,-0.11576 0.604118,-0.11694 1.317215,-0.11693 2.639608,-0.13736 3.961061,-0.15226 2.124972,-0.0117 4.250002,-0.005 6.374993,-0.002 1.591273,0.009 3.189271,-0.0526 4.769826,-0.24769 0.398473,-0.0492 2.039493,-0.30344 2.519148,-0.37701 2.386552,-0.39058 4.751999,-0.89455 7.11854,-1.38911 1.390471,-0.23507 2.758467,-0.58251 4.143,-0.84487 1.351925,-0.26277 2.731005,-0.27899 4.102602,-0.31186 3.210222,-0.0479 6.420988,-0.0422 9.63149,-0.0424 2.560486,5.3e-4 5.120966,0.003 7.681456,0.004 2.33355,0.0525 4.65709,-0.20776 6.97475,-0.44351 0.35641,-0.0399 0.71273,-0.0806 1.06923,-0.11963 1.3286,-0.14548 2.642,-0.35788 3.9434,-0.66848 0.62646,-0.14952 1.95722,-0.52026 2.63593,-0.70695 2.19254,-0.67644 4.40124,-1.29958 6.58916,-1.9909 2.03743,-0.60804 4.1449,-0.93043 6.22598,-1.35001 1.96766,-0.45952 3.95943,-0.79562 5.92437,-1.26594 1.52107,-0.28698 2.99725,-0.75554 4.50876,-1.08356 1.30371,-0.20414 2.59351,-0.4678 3.88204,-0.75046 0.41972,-0.0863 0.84743,-0.10773 1.2744,-0.12294 0.82681,-0.0783 1.65462,-0.13242 2.48439,-0.16512 0.2454,-0.0205 0.49081,-0.0409 0.73621,-0.0614 9.30913,-0.91952 8.00873,-14.08462 -1.3004,-13.1651 v 0 c 0.0114,0.003 0.0228,0.005 0.0341,0.008 -0.83048,0.0337 -1.70501,0.0686 -2.50364,0.16591 -1.19768,0.0529 -2.39373,0.16318 -3.56698,0.42038 -0.42907,0.0946 -0.86189,0.21964 -1.29436,0.29733 -0.85971,0.15445 -1.72911,0.25869 -2.58207,0.4519 -1.59788,0.35347 -3.16431,0.82422 -4.7698,1.14363 -1.80467,0.43827 -3.64135,0.72363 -5.44695,1.16025 -2.54575,0.51557 -5.12164,0.92208 -7.60403,1.70657 -2.02475,0.64465 -4.0739,1.20967 -6.10118,1.84646 -0.95463,0.2628 -1.89648,0.52995 -2.86465,0.73795 -0.21565,0.0463 -0.42946,0.10344 -0.64771,0.13538 -0.34239,0.0501 -0.68824,0.0728 -1.03221,0.11048 -0.31195,0.0342 -0.62371,0.0702 -0.93557,0.10533 -1.86995,0.19105 -3.74438,0.4228 -5.62748,0.37531 -2.56269,-10e-4 -5.12538,-0.003 -7.688067,-0.004 -3.320346,2.2e-4 -6.640994,-0.006 -9.961018,0.0465 -2.113425,0.0546 -4.23265,0.13457 -6.311823,0.55379 -1.438431,0.28612 -2.865353,0.62412 -4.310568,0.87878 -2.133885,0.4463 -4.266438,0.90236 -6.417101,1.26208 -1.744583,0.26761 -3.491571,0.55032 -5.264962,0.47178 -2.182601,-0.003 -4.365246,-0.0105 -6.547826,0.003 -2.183357,0.0263 -4.37892,0.0566 -6.535555,0.43592 -1.462886,0.32061 -2.886305,0.75149 -4.281723,1.29538 -1.259281,0.38799 -2.528678,0.7259 -3.82642,0.96727 -1.247727,0.26888 -2.514105,0.50997 -3.711755,0.96511 -1.026183,0.38997 -1.20751,0.52003 -2.033119,1.00438 -0.008,0.005 0.01699,-0.008 0.02548,-0.0113 -8.02136,4.81282 -1.215009,16.15674 6.80635,11.34392 z" />
        <path
           style="fill:#a05a2c;stroke:none;stroke-width:0.1;stroke-linecap:round"
           id="path882"
           d="m 43.674604,161.92731 c 0.459533,-0.0604 0.920636,-0.1098 1.378606,-0.18107 0.837377,-0.13032 2.229776,-0.414 3.042277,-0.56545 1.590751,-0.29651 3.18194,-0.586 4.770125,-0.89646 1.305708,-0.25275 2.587395,-0.62042 3.891584,-0.87957 0.358656,-0.0713 1.52118,-0.23725 1.830017,-0.28947 0.439283,-0.0743 0.876782,-0.15874 1.315175,-0.23811 1.269085,-0.28961 2.556846,-0.50845 3.820044,-0.82444 0.01405,-0.004 1.477639,-0.40074 1.724808,-0.46782 0.620876,-0.16032 1.223494,-0.3851 1.843196,-0.5494 0.235543,-0.0624 0.476903,-0.10075 0.713766,-0.15799 1.375828,-0.33246 2.745568,-0.69303 4.1137,-1.05544 0.846597,-0.20904 2.246407,-0.57892 3.112751,-0.6955 1.61158,-0.21687 4.48527,-0.3353 5.926722,-0.38592 3.4973,-0.12283 4.010679,-0.0882 7.443224,-0.0743 2.694464,0.0307 5.38738,0.1264 8.079878,0.22761 0.63532,0.0239 1.270201,0.0654 1.905933,0.0725 1.96301,0.0217 2.22006,-0.035 4.15594,-0.1707 0.59755,-0.0691 1.19687,-0.12437 1.79267,-0.20728 1.53165,-0.21314 3.05411,-0.51891 4.57729,-0.78381 1.00152,-0.17418 2.00457,-0.33947 3.00657,-0.51088 3.33728,-0.53905 6.59789,-1.42271 9.86498,-2.27112 1.67581,-0.40984 3.3822,-0.62845 5.0861,-0.87663 0.70464,-0.10263 2.69866,-0.42026 3.45076,-0.53929 1.49981,-0.23867 3.00787,-0.44416 4.49975,-0.73079 1.175,-0.22575 2.33292,-0.52401 3.49791,-0.79414 1.92164,-0.3611 3.83133,-0.77762 5.74806,-1.16308 1.59968,-0.31198 3.18368,-0.69822 4.7807,-1.02465 1.34406,-0.36936 2.70914,-0.64496 4.06617,-0.96021 1.28575,-0.20072 2.54095,-0.51426 3.78681,-0.88641 0.2583,-0.0695 0.1485,-0.0448 0.32764,-0.0816 9.09418,-2.19118 5.99539,-15.05229 -3.09879,-12.86112 v 0 c -0.69031,0.17116 -0.35061,0.0815 -1.01927,0.26818 -0.15012,0.0449 -0.30063,0.0886 -0.45035,0.13481 -0.0921,0.0284 -0.17513,0.0843 -0.26915,0.10531 -0.75725,0.16919 -1.53484,0.24216 -2.28686,0.43861 -1.24128,0.29237 -2.49693,0.52533 -3.72185,0.88459 -1.57727,0.32602 -3.14365,0.70155 -4.72339,1.01299 -2.04565,0.41143 -4.08482,0.85017 -6.13361,1.24662 -0.90545,0.21073 -1.81009,0.46286 -2.72332,0.6384 -1.44175,0.27711 -2.89942,0.47486 -4.3487,0.70598 -0.4093,0.0648 -2.75371,0.4372 -3.16588,0.49737 -2.22273,0.32447 -4.44736,0.63385 -6.63002,1.18113 -2.9049,0.75537 -5.80037,1.55692 -8.76846,2.0353 -1.03515,0.1771 -2.07131,0.34837 -3.10598,0.52828 -1.2693,0.2207 -2.53718,0.48074 -3.81172,0.66982 -0.40631,0.0603 -0.81525,0.10126 -1.22287,0.15189 -1.08356,0.0909 -1.55519,0.1554 -2.658477,0.1428 -0.639617,-0.007 -1.278382,-0.0489 -1.917594,-0.0729 -2.841233,-0.10657 -5.682946,-0.20638 -8.526277,-0.23665 -3.551423,-0.01 -4.555773,-0.0482 -8.157665,0.0912 -2.898989,0.11222 -5.06467,0.21806 -7.901059,0.6359 -1.104815,0.16275 -2.749079,0.59509 -3.861099,0.87095 -2.249278,0.59784 -4.524028,1.10213 -6.749542,1.78401 -0.358545,0.0977 -0.710782,0.21846 -1.071472,0.30788 -1.119905,0.27765 -2.259616,0.47563 -3.38328,0.73689 -1.2226,0.22701 -2.455064,0.39218 -3.674766,0.63571 -0.280303,0.056 -2.109544,0.48174 -2.354832,0.53781 -0.388268,0.0888 -0.776946,0.17572 -1.16542,0.26358 -2.489698,0.48731 -4.989984,0.92316 -7.476668,1.4227 -9.336214,0.58352 -8.511002,13.78692 0.825215,13.20341 z" />
        <path
           style="fill:#a05a2c;stroke:none;stroke-width:0.1;stroke-linecap:round"
           id="path884"
           d="m 47.360054,173.30208 c 2.005589,-0.0316 3.886554,-0.75707 5.721868,-1.49326 0.860555,-0.32006 1.74362,-0.5994 2.657457,-0.71294 1.662014,-0.19592 3.315237,-0.43498 4.987168,-0.53001 1.817163,-0.0821 3.636391,-0.0968 5.455102,-0.10279 1.974527,-0.003 3.949055,5.3e-4 5.923582,0.002 3.260561,0.002 6.521122,0.002 9.781682,0.002 4.967177,0.0127 9.924217,-0.31007 14.866043,-0.78288 3.375414,-0.40518 6.745054,-0.90092 10.069954,-1.61759 2.0286,-0.43727 2.61575,-0.61376 4.58746,-1.1311 2.44347,-0.73208 4.91178,-1.4517 7.24766,-2.49143 0.37789,-0.16821 0.74738,-0.35471 1.12107,-0.53206 1.05352,-0.58352 2.15392,-1.05869 3.26909,-1.50548 1.13163,-0.36333 2.23456,-0.8044 3.32757,-1.27031 1.26019,-0.54775 2.57661,-0.93409 3.90927,-1.25734 1.35412,-0.34209 2.69967,-0.72721 4.06825,-1.00843 1.23981,-0.21535 2.45287,-0.56597 3.70413,-0.71333 1.86857,-0.11504 3.73036,-0.29846 5.58986,-0.51471 1.68232,-0.17149 3.34235,-0.49854 5.01647,-0.73133 1.65252,-0.25334 3.28991,-0.58975 4.93385,-0.8916 1.51844,-0.3227 2.98524,-0.82972 4.46061,-1.30272 0.83833,-0.24057 1.66055,-0.5316 2.49355,-0.78943 0.77692,-0.17794 1.52668,-0.45857 2.29816,-0.65783 0.50869,-0.12336 1.0432,-0.1347 1.56584,-0.16564 0.72344,-0.0346 1.44102,-0.1338 2.16387,-0.17831 1.23791,-0.16396 0.69045,-0.0699 1.64649,-0.25709 9.16595,-1.86838 6.52366,-14.83099 -2.64228,-12.96261 v 0 c -0.20421,0.0503 -0.15753,0.0306 0.15096,0.0175 -0.74361,0.0487 -1.47216,0.13712 -2.14169,0.17691 -1.40806,0.0903 -2.82275,0.21733 -4.18747,0.59627 -0.92686,0.25395 -1.83894,0.55731 -2.77046,0.79465 -0.87389,0.27116 -1.73696,0.57391 -2.61606,0.82806 -0.93577,0.30006 -1.8674,0.61583 -2.81061,0.88856 -1.45656,0.26744 -2.90709,0.56502 -4.36923,0.8005 -1.57747,0.21992 -3.14202,0.52248 -4.72554,0.69409 -1.93193,0.2264 -3.86734,0.38252 -5.80539,0.54166 -1.58403,0.22189 -3.13979,0.56683 -4.70581,0.88634 -1.50575,0.32613 -2.99624,0.71701 -4.48705,1.10459 -2.02816,0.5058 -4.03246,1.10733 -5.95269,1.94243 -0.99575,0.43068 -2.01165,0.79576 -3.03681,1.14972 -1.39904,0.56114 -2.78358,1.15738 -4.11017,1.87706 -1.89203,0.95766 -3.96288,1.50893 -5.97786,2.13918 -1.58669,0.42068 -2.17711,0.5956 -3.80271,0.94957 -2.88796,0.62885 -5.815877,1.05964 -8.747555,1.42269 -4.520817,0.43639 -9.05586,0.73303 -13.600229,0.72224 -3.256838,-1.4e-4 -6.513677,1.2e-4 -9.770515,-0.002 -1.993162,-0.002 -3.986326,-0.005 -5.979488,-0.002 -2.072275,0.007 -4.145227,0.0257 -6.215422,0.1272 -2.110142,0.13425 -4.202705,0.40137 -6.298565,0.67584 -0.429617,0.0747 -0.861309,0.13842 -1.288849,0.22425 -1.428213,0.28673 -2.817635,0.76793 -4.18079,1.27053 -0.311393,0.1251 -0.616018,0.26706 -0.929886,0.38581 -0.134691,0.051 -0.275095,0.0858 -0.410054,0.13603 -0.02294,0.009 -0.0861,0.0365 -0.06182,0.0396 0.201109,0.026 0.406669,-0.0835 0.607986,-0.0204 -9.354434,0 -9.354434,13.22917 0,13.22917 z" />
        <path
           style="fill:#a05a2c;stroke:none;stroke-width:0.1;stroke-linecap:round"
           id="path886"
           d="m 66.772477,162.34077 c 2.550562,0.093 5.102415,0.19722 7.654502,0.27114 2.237798,0.0706 4.476448,0.0967 6.715212,0.10611 2.016109,-0.0772 4.025124,-0.24513 6.041966,-0.31078 1.623129,-0.0504 3.247001,-0.0632 4.870789,-0.068 2.781522,-0.0153 5.532215,-0.4742 8.279314,-0.85964 2.58786,-0.26247 5.18315,-0.42216 7.76996,-0.69705 1.75423,-0.19553 3.51621,-0.31885 5.27002,-0.51599 9.29088,-1.08858 7.75139,-14.22787 -1.53948,-13.13928 v 0 c -1.70309,0.218 -3.42594,0.28591 -5.13007,0.50034 -0.2496,0.0266 -1.82607,0.19603 -2.09606,0.21895 -2.03799,0.17297 -4.08393,0.26628 -6.113469,0.53232 -2.151036,0.30211 -4.30349,0.68431 -6.47963,0.73124 -1.756439,0.005 -3.51296,0.02 -5.268664,0.0751 -1.85249,0.0621 -3.700311,0.17898 -5.549349,0.30365 -2.129647,-0.009 -4.259186,-0.0332 -6.387912,-0.10068 -2.679661,-0.0774 -5.358247,-0.1952 -8.037129,-0.27667 -9.354434,0 -9.354434,13.22916 0,13.22916 z" />
        <path
           style="fill:#a05a2c;stroke:none;stroke-width:0.1;stroke-linecap:round"
           id="path888"
           d="m 105.73477,170.84524 c 0.80014,5.3e-4 1.60705,-0.0815 2.38681,-0.2656 1.89384,-0.44713 0.40877,-0.12227 0.94237,-0.23845 -0.01,0.007 -0.0419,0.0176 -0.0301,0.0203 0.15846,0.0373 0.61607,-0.0319 0.76497,-0.0429 0.49609,-0.0368 0.75386,-0.0642 1.23067,-0.11039 1.12208,-0.0499 2.23314,-0.19146 3.34556,-0.34044 2.03098,-0.12019 4.06708,-0.11514 6.10043,-0.17094 2.20871,-0.11486 4.40935,-0.36799 6.59407,-0.70786 1.58349,-0.34072 3.20138,-0.43166 4.80602,-0.61627 1.56529,-0.19393 3.06994,-0.67978 4.60103,-1.03657 1.27675,-0.23238 2.54656,-0.49695 3.83384,-0.66721 1.26687,-0.13434 2.53669,-0.23842 3.80979,-0.28858 1.43694,-0.048 2.87466,-0.0652 4.3123,-0.0719 0.94483,-0.003 1.88967,-10e-4 2.83449,-1.8e-4 1.23871,0.0206 2.46143,-0.21353 3.67015,-0.45586 1.1417,-0.26757 1.32631,-0.25636 2.51787,-0.50063 0.9585,-0.21591 1.9385,-0.30355 2.90974,-0.44312 0.67813,-0.0769 1.35847,-0.12379 2.03658,-0.20248 0.46576,-0.0601 0.93466,-0.0801 1.40371,-0.0895 0.63834,-0.01 1.27678,-0.01 1.91518,-0.01 0.54075,5.3e-4 1.08151,0.001 1.62227,0.001 0.20889,1.2e-4 0.41778,1.7e-4 0.62667,2.1e-4 9.35444,0.002 9.35739,-13.22707 0.003,-13.22916 v 0 c -0.20718,-5e-5 -0.41437,-1e-4 -0.62156,-2.1e-4 -0.5421,-2.7e-4 -1.08421,-8e-4 -1.62631,-0.001 -0.7448,-2.1e-4 -1.48966,-1.8e-4 -2.23436,0.0134 -0.877,0.0226 -1.75361,0.0668 -2.62479,0.17528 -0.79283,0.0937 -1.59186,0.1285 -2.38236,0.24753 -1.23635,0.17772 -2.48229,0.3001 -3.70156,0.58161 -0.81765,0.17039 -1.64673,0.30826 -2.44728,0.48626 -0.2939,0.0591 -0.58368,0.11675 -0.87925,0.16635 -0.0576,0.01 -0.23047,0.0222 -0.17264,0.0307 0.12706,0.0186 0.50953,-0.0319 0.38527,5.3e-4 -0.1245,0.0325 -0.25733,-2.4e-4 -0.38598,-2.7e-4 -0.97051,-0.001 -1.94101,-0.003 -2.91151,2.7e-4 -1.60093,0.008 -3.20195,0.0275 -4.80202,0.0833 -1.68432,0.0733 -3.36606,0.20175 -5.04075,0.3978 -1.69977,0.23533 -3.38296,0.55963 -5.06559,0.89463 -0.59368,0.13944 -0.88097,0.20318 -1.48137,0.36032 -0.41273,0.10801 -0.82541,0.24827 -1.23964,0.34344 -0.14268,0.0328 -0.28816,0.0519 -0.43224,0.0778 -1.77726,0.22617 -3.57696,0.30103 -5.33248,0.68985 -1.60999,0.27303 -3.24227,0.42234 -4.86945,0.54626 -2.50029,0.0712 -5.00915,0.0318 -7.50034,0.28462 -0.20431,0.0277 -0.4088,0.0542 -0.61293,0.0832 -0.13675,0.0194 -0.26941,0.0661 -0.40707,0.0773 -0.613,0.05 -1.23086,0.0475 -1.84216,0.12371 -1.30451,0.12855 -2.62454,0.15317 -3.90392,0.46923 -0.99939,0.2582 -0.55508,0.13105 -0.29018,0.092 0.0647,-0.01 -0.25761,0.0347 -0.19233,0.0394 0.18972,0.0137 0.38025,-0.039 0.57004,-0.0262 0.0641,0.004 -0.12843,0 -0.19265,0 -9.354429,0 -9.354429,13.22917 0,13.22917 z" />
        <path
           style="fill:#a05a2c;stroke:none;stroke-width:0.1;stroke-linecap:round"
           id="path890"
           d="m 98.350016,161.72515 c 0.03209,-0.0135 0.06406,-0.0273 0.09628,-0.0405 0.119079,-0.0488 0.08656,-0.0322 0.258197,-0.0866 0.01524,-0.005 0.06105,-0.0187 0.04538,-0.0155 -0.395902,0.0797 -0.501079,0.10555 -0.836748,0.18288 -0.11649,-0.0138 -0.310546,-0.002 -0.463878,0.002 -1.519708,0.0363 -3.005304,-0.35972 -4.477469,-0.68142 -2.557259,-0.55177 -5.080207,-1.24988 -7.642614,-1.77768 -1.410968,-0.31693 -2.843147,-0.38523 -4.282649,-0.35934 -1.715043,0.0746 -3.430942,0.12631 -5.147347,0.1546 -1.123146,0.0249 -2.246453,-0.0116 -3.367156,0.0861 -0.628444,0.0548 -1.202696,0.14541 -1.821993,0.23532 -1.047557,0.16072 -2.087602,0.37343 -3.12393,0.59413 -0.798679,0.18252 -1.602708,0.33435 -2.400189,0.52483 -0.848547,0.11428 -1.644099,0.43607 -2.457532,0.68076 0.04366,-0.0681 0.163187,-0.0236 0.21708,-0.0785 0.03508,-0.0357 -0.100039,0.005 -0.150032,0.008 -0.09177,0.005 -0.183655,0.009 -0.275248,0.0172 -0.40744,0.0351 -0.729261,0.0711 -1.129102,0.11374 -0.870476,0.0446 -1.714955,0.25755 -2.571588,0.39603 -9.222047,1.56821 -7.004275,14.61015 2.217774,13.04195 v 0 c 1.25902,-0.21865 0.658673,-0.18944 1.762099,-0.28398 1.334341,-0.14358 2.691376,-0.19145 3.9767,-0.61966 0.167151,-0.0547 0.334304,-0.10936 0.501455,-0.16404 0.03374,-0.0132 0.06698,-0.0278 0.101216,-0.0397 0.06204,-0.0215 0.25304,-0.0643 0.187481,-0.0605 -0.127222,0.007 -0.500991,0.094 -0.375573,0.0714 0.563925,-0.10151 0.502399,-0.0934 1.0693,-0.21561 0.753065,-0.17996 1.513774,-0.3168 2.267582,-0.49387 0.693317,-0.13497 1.398244,-0.29963 2.104208,-0.4033 0.346948,-0.0518 0.730371,-0.1468 1.084815,-0.1598 0.800161,-0.0293 1.602944,0.01 2.403179,-0.0231 1.776407,-0.0299 3.552415,-0.0807 5.327401,-0.15883 0.418582,-0.0392 0.827254,0.006 1.23888,0.0987 2.510999,0.50414 4.973018,1.22813 7.481866,1.74387 2.519191,0.54299 5.063535,1.08064 7.657526,0.97663 1.02743,-0.0319 2.056831,-0.0974 3.060773,-0.33451 0.66264,-0.15305 1.62018,-0.32177 2.37704,-0.64795 8.68538,-3.47415 3.77219,-15.75712 -4.913184,-12.28297 z" />
        <path
           style="fill:#a05a2c;stroke:none;stroke-width:0.1;stroke-linecap:round"
           id="path892"
           d="m 108.16087,129.83482 c 1.165,0 2.33,0 3.495,0 1.32632,-0.004 2.65254,0.0168 3.97821,-0.028 0.8511,-0.0232 1.67947,-0.2125 2.50978,-0.37742 0.33987,-0.0675 0.69658,-0.1017 1.03751,-0.15416 0.95284,-0.10603 1.8889,-0.31644 2.83488,-0.46439 0.79509,-0.17562 1.58379,-0.37177 2.39366,-0.46415 0.496,-0.003 0.9785,-0.17752 1.47257,-0.19121 0.96092,-0.0518 1.9132,-0.18019 2.86211,-0.33366 0.81275,-0.17258 1.63032,-0.32051 2.44676,-0.47754 1.07144,-0.15354 2.10252,-0.47297 3.11817,-0.83714 -0.21636,0.11448 -0.60377,0.13371 -0.11589,0.11713 0.76897,0.004 1.53411,-0.0804 2.29974,-0.1401 1.0875,-0.0597 2.1192,-0.40738 3.14158,-0.74621 -0.0288,0.0105 -0.11579,0.0406 -0.0865,0.0315 0.63671,-0.19829 1.24687,-0.42248 1.86573,-0.67198 -0.20563,0.12519 -0.45929,0.12421 -0.67951,0.20282 -0.0116,0.004 0.0246,7.9e-4 0.037,0.001 0.34118,-0.009 0.68252,-0.007 1.02378,-0.006 0.6833,0.0395 1.35353,-0.10772 2.02919,-0.16896 0.0942,-0.006 0.0501,-0.004 0.13229,-0.006 9.33986,-0.52199 8.60164,-13.73055 -0.73821,-13.20855 v 0 c -0.52068,0.032 -0.26892,0.0132 -0.75537,0.0553 -0.21477,0.023 -1.62381,0.16365 -0.41607,0.0994 0.0756,-0.004 -0.1513,-5.3e-4 -0.22696,-5.3e-4 -0.63057,-10e-4 -1.2616,-0.003 -1.89142,0.0331 -1.2105,0.0867 -2.41287,0.28308 -3.53797,0.75973 -0.10991,0.0454 -0.22075,0.0887 -0.32975,0.1363 -0.0242,0.0106 0.36364,-0.11502 0.1924,-0.0575 -0.12574,0.0422 -0.25755,0.0683 -0.37865,0.12243 -0.013,0.006 1.30384,-0.3656 -0.27205,0.0778 -0.15779,0.0521 -0.31622,0.10222 -0.47337,0.15618 -0.11085,0.0381 -0.22079,0.0788 -0.33055,0.11987 -0.0196,0.007 -0.0778,0.0295 -0.0573,0.0254 0.25829,-0.052 0.51473,-0.11287 0.7721,-0.1693 -0.15175,0.0276 -0.17119,0.0221 -0.0551,0.0252 -0.68214,0.0538 -1.20645,0.12237 -1.87729,0.11375 -1.26884,0.0638 -2.53839,0.20895 -3.74046,0.64628 -0.10509,0.0377 -0.21058,0.0744 -0.31528,0.11324 -0.033,0.0122 -0.13257,0.0436 -0.0976,0.0398 0.0996,-0.0108 0.38847,-0.0951 0.29426,-0.061 -0.34544,0.1248 -0.74815,0.10711 -1.09327,0.2181 -0.82694,0.16549 -1.65616,0.31492 -2.48215,0.48456 0.12551,-0.0113 0.50226,-0.0421 0.37651,-0.034 -0.60677,0.0391 -1.20779,0.13749 -1.81515,0.1623 -0.64656,0.0624 -1.28483,0.16762 -1.9278,0.23974 -0.97384,0.12464 -1.97814,0.25312 -2.91601,0.5396 -0.90064,0.15193 -1.79345,0.34152 -2.70223,0.4432 -0.37581,0.0583 -0.75291,0.10841 -1.12796,0.17141 -0.31974,0.0537 -0.65054,0.0745 -0.95441,0.18755 -0.0114,0.004 0.17253,0.002 0.0229,0.0283 -1.14642,0.0667 -2.29913,-0.0144 -3.44674,0.0173 -1.16501,0 -2.33001,0 -3.49501,0 -9.354433,0 -9.354433,13.22917 0,13.22917 z" />
      </g>
      <circle
         id="path905"
         style="fill:#a05a2c;stroke:none;stroke-width:0.264583"
         cx="42.076103"
         cy="124.17655"
         r="0.062300526" />
      <circle
         id="path909"
         style="fill:#a05a2c;stroke:none;stroke-width:0.264583"
         cx="45.951511"
         cy="124.57745"
         r="0.031150263" />
      <circle
         id="path913"
         style="fill:#a05a2c;stroke:none;stroke-width:0.264583"
         cx="43.011547"
         cy="123.64201"
         r="0.031150263" />
      <circle
         id="path915"
         style="fill:#a05a2c;stroke:none;stroke-width:0.264583"
         cx="43.011547"
         cy="123.64201"
         r="0.031150263" />
      <circle
         id="path917"
         style="fill:#a05a2c;stroke:none;stroke-width:0.264583"
         cx="43.011547"
         cy="123.64201"
         r="0.031150263" />
      <circle
         id="path919"
         style="fill:#a05a2c;stroke:none;stroke-width:0.264583"
         cx="43.011547"
         cy="123.64201"
         r="0.031150263" />
      <path
         style="fill:#a05a2c;stroke:none;stroke-width:0.1;stroke-linecap:round"
         id="path925"
         d="m 57.181214,118.58589 c 0.05663,-0.0136 0.113252,-0.0272 0.169878,-0.0408 4.76e-4,-9.3e-4 0.0024,-0.003 0.0014,-0.003 -0.56923,0.006 -1.131159,0.22316 -1.663884,0.38926 -0.07991,-0.0249 -0.147204,0.0801 -0.226824,0.0759 -0.02707,-0.001 0.05159,-0.0208 0.07091,-0.0398 -0.658462,0.087 -1.301743,0.25964 -1.960522,0.34248 -0.167855,-7.1e-4 -0.343138,0.061 -0.511799,0.0418 -0.02812,-0.003 0.06059,0.004 0.08399,-0.0124 0.01522,-0.0104 -0.03649,-0.005 -0.05473,-0.008 0.08723,0.006 0.174452,0.0121 0.261678,0.0181 0.02457,0.003 0.09349,0.0237 0.0737,0.009 -0.02508,-0.0188 -0.06088,-0.0152 -0.09146,-0.0222 -0.07185,-0.0165 -0.143503,-0.0339 -0.21582,-0.0482 -0.35037,-0.0692 -0.698544,-0.11529 -1.053584,-0.15038 -0.671574,-0.0686 -1.344616,-0.0265 -2.013512,0.048 -0.247233,0.0284 -0.495859,0.0367 -0.74443,0.0424 0.283939,-0.006 0.474653,-0.002 0.75844,0.0641 0.395819,0.0929 0.780475,0.25552 0.0084,-0.0379 -0.752142,-0.27095 -1.544551,-0.37068 -2.338159,-0.41268 -0.586726,-0.0357 -1.169099,-0.005 -1.754263,0.0378 -0.438812,0.0704 -0.785268,0.10987 -1.22563,0.19503 -0.464838,0.0483 -0.88731,0.25335 -1.326544,0.39015 -0.006,0.002 0.01059,-0.007 0.01644,-0.009 0.02601,-0.01 0.05262,-0.0178 0.07893,-0.0266 0.03359,-0.009 0.134707,-0.0347 0.100782,-0.0271 -0.421277,0.0954 -0.838967,0.19212 -1.255296,0.30873 -0.460776,0.15667 -0.274172,0.0891 -0.562247,0.19584 -6.197148,2.31256 -2.926693,11.07666 3.270466,8.7641 v 0 c 0.06721,-0.0258 0.05444,-0.0192 -0.04252,0.007 -0.26614,0.0454 0.384905,-0.0846 0.510449,-0.11843 0.03516,-0.009 -0.142897,0.0281 -0.107378,0.0201 0.132609,-0.03 0.265802,-0.0573 0.398703,-0.0859 0.18012,-0.049 1.723716,-0.52327 0.513168,-0.20067 -0.06748,0.018 0.137301,-0.0256 0.205952,-0.0384 0.02774,-0.006 0.111543,-0.0173 0.08323,-0.017 -0.05593,6.3e-4 -0.222324,0.0249 -0.166831,0.018 0.230126,-0.029 0.463558,-0.0484 0.691459,-0.0941 0.01382,-0.003 -0.02811,0.002 -0.04217,0.003 -0.962743,0.0413 -0.05807,0.006 0.167923,0.0214 0.198654,0.003 -0.335483,-0.0726 -0.362222,-0.12152 -0.316726,-0.13913 0.0825,0.037 0.150228,0.0612 0.592137,0.21176 1.180699,0.38598 1.811294,0.42852 0.216087,0.0146 0.43281,0.0173 0.649214,0.026 0.518618,-0.0135 1.037056,-0.0385 1.552771,-0.0975 0.05414,-0.006 0.108334,-0.0117 0.162411,-0.0183 0.01708,-0.002 0.06821,-0.007 0.05103,-0.008 -0.484969,-0.0277 -0.198131,0.008 -0.08012,-0.002 -0.02195,-0.006 -0.122898,-0.031 -0.124594,-0.0321 -0.02221,-0.0149 0.05237,0.0108 0.07843,0.0168 0.451396,0.10347 0.0084,0.009 0.666949,0.143 0.228368,0.0291 0.455965,0.065 0.685106,0.0872 0.76915,0.0745 1.544341,3.9e-4 2.308155,-0.0912 0.61169,-0.0863 1.225542,-0.18683 1.826684,-0.32518 0.774481,-0.10206 1.54101,-0.26101 2.270246,-0.54874 -0.142177,0.0371 -0.284354,0.0741 -0.426531,0.11118 -0.129712,0.0156 -0.26259,0.0144 -0.389136,0.0469 -0.107852,0.0277 0.221819,-0.02 0.33248,-0.0324 0.159134,-0.0178 0.432416,-0.0555 0.58778,-0.0845 0.137315,-0.0256 0.273562,-0.0566 0.410342,-0.0849 6.41709,-1.60428 4.148306,-10.67941 -2.268783,-9.07514 z" />
      <path
         style="fill:#a05a2c;stroke:none;stroke-width:0.1;stroke-linecap:round"
         id="path927"
         d="m 155.3445,145.19161 c -0.2306,0.11266 -0.62123,0.16411 0.10127,0.0639 0.36923,-0.0777 0.74304,-0.0757 1.11901,-0.0876 0.6349,0.002 1.26714,-0.032 1.89819,-0.10171 0.20779,-0.0315 0.41728,-0.0359 0.62687,-0.0396 0.6015,0.004 1.20167,-0.0231 1.79113,-0.15882 0.25299,-0.0583 0.49803,-0.14681 0.74705,-0.22022 0.40529,-0.15305 0.74677,-0.2696 1.18438,-0.43172 0.55302,-0.22094 1.0602,-0.53529 1.52867,-0.90052 0.11905,-0.0928 0.22891,-0.19687 0.34436,-0.29414 0.005,-0.004 -0.008,0.0111 -0.0131,0.0151 -0.13772,0.1042 -0.27709,0.20621 -0.41564,0.30932 -0.11938,0.0664 -0.24128,0.12845 -0.35816,0.19916 -0.0318,0.0193 0.0676,-0.0311 0.10235,-0.0444 0.0171,-0.007 -0.0328,0.0161 -0.0492,0.0241 0.0987,-0.0408 0.19883,-0.0783 0.29614,-0.12235 0.55577,-0.25153 0.47601,-0.23294 1.08889,-0.60727 0.23745,-0.19908 0.49389,-0.37748 0.71234,-0.59724 0.70181,-0.70603 1.14271,-1.52943 1.4251,-2.47675 0.0601,-0.20179 0.19247,-0.98643 0.0943,-0.41526 0.1896,-0.61812 0.25847,-1.26272 0.28289,-1.90629 0.006,-0.14694 0.0161,-0.29448 0.005,-0.44113 -0.0283,-0.37949 -0.0819,-0.75668 -0.12278,-1.13501 -0.13323,-0.73904 -0.43898,-1.41134 -0.78145,-2.07077 -3.10513,-5.84046 -11.36478,-1.44914 -8.25965,4.39131 v 0 c 0.007,0.01 0.024,0.041 0.0204,0.0296 -0.18178,-0.5826 -0.0433,8e-4 -0.18908,-0.71134 -0.007,-0.18895 -0.0122,-0.37799 -0.0217,-0.56684 -0.003,-0.0524 -0.006,0.10544 0.001,0.15746 0.002,0.0159 0.0103,-0.0305 0.0139,-0.0461 0.0311,-0.13549 0.0618,-0.2711 0.0903,-0.40717 0.0266,-0.12698 -0.17769,0.75603 -0.0987,0.37649 -0.0433,0.19107 -0.0913,0.38114 -0.12998,0.5732 -0.0218,0.10815 0.0433,-0.21703 0.0792,-0.32131 0.31233,-0.90522 0.79376,-1.60583 1.59294,-2.15079 0.13293,-0.075 0.2637,-0.15396 0.3988,-0.22497 0.049,-0.0257 0.20521,-0.0831 0.15394,-0.0622 -0.40928,0.16656 -0.81221,0.32149 -1.19328,0.55472 -0.49259,0.33938 -0.59115,0.37455 -0.94407,0.68907 -0.0335,0.0298 0.0697,-0.0566 0.10642,-0.0824 0.23278,-0.16355 0.477,-0.31767 0.74682,-0.41311 0.069,-0.0226 0.2759,-0.09 0.20685,-0.0678 -0.32893,0.10609 -0.65456,0.22293 -0.97699,0.34403 0.13343,-0.0331 0.26514,-0.0742 0.4003,-0.0994 0.51364,-0.0956 0.20662,-0.0192 0.58192,-0.0464 0.0647,-0.005 -0.12972,5.3e-4 -0.19458,8e-4 -0.21994,0.001 -0.2179,0.002 -0.44454,0.005 -0.49108,0.0112 -0.98213,0.0333 -1.46981,0.0955 -0.0732,0.008 -0.14828,0.008 -0.21952,0.0264 -0.005,0.001 0.0177,0.007 0.0128,0.007 -0.31966,0.0102 -0.64007,-7.9e-4 -0.95966,0.0153 -0.72448,0.0245 -1.45131,0.0537 -2.16647,0.18131 -0.26397,0.0516 0.25193,-0.0477 -0.5479,0.0725 -0.57051,0.0857 -1.13141,0.23184 -1.67166,0.43388 -6.14148,2.4566 -2.66734,11.14197 3.47415,8.68538 z" />
    </g>
  </g>
</svg>
