<?xml version="1.0" encoding="utf-8"?>
<!-- Generator: Adobe Illustrator 24.0.0, SVG Export Plug-In . SVG Version: 6.00 Build 0)  -->
<svg version="1.1" id="Layer_1" xmlns="http://www.w3.org/2000/svg" xmlns:xlink="http://www.w3.org/1999/xlink" x="0px" y="0px"
	 viewBox="0 0 256 256" style="enable-background:new 0 0 256 256;" xml:space="preserve">
<style type="text/css">
	.st0{fill:#FFB69F;}
	.st1{fill:#72C2E9;}
	.st2{fill:#C2E5FF;}
	.st3{fill:#FC5D3D;}
	.st4{fill:#AFAFAF;}
	.st5{fill:#FFCBC3;}
	.st6{fill:#F0C020;}
	.st7{fill:#F8E5B0;}
	.st8{fill:#EFEFEF;}
	.st9{fill:#EEC21E;}
	.st10{fill:#FFFFFF;}
	.st11{fill:#F1BF21;}
	.st12{fill:#E8A61E;}
	.st13{fill:#7D7B79;}
	.st14{fill:#B34F33;}
	.st15{fill:#F8E5B2;}
	.st16{fill:#C5E5FE;}
	.st17{fill:#4C4944;}
	.st18{fill:#4BA5C8;}
	.st19{fill:#AFAEAF;}
	.st20{fill:#CF941C;}
	.st21{fill:#7C7B7A;}
	.st22{fill:#FAE0E1;}
	.st23{fill:#13BF6D;}
	.st24{fill:#76FFBB;}
	.st25{fill:#F2E1D7;}
	.st26{fill:#878787;}
	.st27{fill:#F9E5AF;}
	.st28{fill:#E8A61F;}
	.st29{fill:none;stroke:#000000;stroke-width:5;stroke-linecap:round;stroke-linejoin:round;stroke-miterlimit:10;}
	.st30{fill:#EFEFF0;}
	.st31{fill:#E8A61B;}
	.st32{fill:#EFEFEE;}
	.st33{fill:#4C4945;}
	.st34{fill:#EA8F7D;}
	.st35{fill:#D6C0B3;}
	.st36{fill:#EEC120;}
</style>
<g>
</g>
<g>
	<g>
		<g>
			<polygon class="st6" points="78.37,51.598 47.811,51.598 63.091,21.039 			"/>
		</g>
		<g>
			<rect x="167.287" y="125.364" class="st3" width="36.078" height="24.228"/>
		</g>
		<g>
			<path class="st5" d="M195.365,144.092h-20.078c-1.381,0-2.5-1.119-2.5-2.5s1.119-2.5,2.5-2.5h17.578v-5.728
				c0-1.381,1.119-2.5,2.5-2.5s2.5,1.119,2.5,2.5v8.228C197.865,142.973,196.746,144.092,195.365,144.092z"/>
		</g>
		<g>
			<g>
				<path class="st3" d="M221.404,210.723v-24.228c-10.472,0-61.701,0-72.155,0v24.228H131.21v24.228c10.791,0,97.591,0,108.233,0
					v-24.228H221.404z"/>
			</g>
			<g>
				<path class="st5" d="M230.75,228.62H155c-1.381,0-2.5-1.119-2.5-2.5s1.119-2.5,2.5-2.5h73.25v-4.75c0-1.381,1.119-2.5,2.5-2.5
					s2.5,1.119,2.5,2.5v7.25C233.25,227.501,232.131,228.62,230.75,228.62z M145,228.62h-4c-1.381,0-2.5-1.119-2.5-2.5
					s1.119-2.5,2.5-2.5h4c1.381,0,2.5,1.119,2.5,2.5S146.381,228.62,145,228.62z"/>
			</g>
		</g>
	</g>
	<path d="M5.696,234.951c0,1.381,1.119,2.5,2.5,2.5c9.963,0,229.567,0,239.608,0c1.381,0,2.5-1.119,2.5-2.5s-1.119-2.5-2.5-2.5
		h-5.862v-21.728c0-1.381-1.119-2.5-2.5-2.5h-15.539v-21.728c0-1.381-1.119-2.5-2.5-2.5c-10.446,0-61.68,0-72.155,0
		c-1.381,0-2.5,1.119-2.5,2.5v21.728H131.21c-1.381,0-2.5,1.119-2.5,2.5v21.728H80.87c0-14.943,0-130.526,0-147.794
		c11.763,0,90.178,0,101.956,0v38.208h-15.539c-1.381,0-2.5,1.119-2.5,2.5v24.228c0,1.381,1.119,2.5,2.5,2.5h36.078
		c1.381,0,2.5-1.119,2.5-2.5v-24.228c0-1.381-1.119-2.5-2.5-2.5h-15.539V84.657h12.779c1.381,0,2.5-1.119,2.5-2.5
		c0-3.121,0-27.551,0-30.559c0-1.122-0.75-2.171-1.994-2.448c-0.001,0-0.003-0.001-0.004-0.001L64.508,18.793
		c-1-0.222-1.829-0.481-2.804,0.166L15.866,49.518c-0.001,0.001-0.002,0.002-0.004,0.003c-0.718,0.482-1.107,1.278-1.109,2.073
		c0,0.001,0,0.003,0,0.005v30.559c0,1.38,1.125,2.5,2.5,2.5h28.059c0,13.848,0,130.111,0,147.794H8.196
		C6.815,232.451,5.696,233.57,5.696,234.951z M200.865,147.092h-31.078v-19.228h31.078V147.092z M50.311,115.216h22.024
		l-22.024,22.023V115.216z M75.87,171.333H53.846l22.024-22.024V171.333z M75.87,140.774H53.846l22.024-22.023V140.774z
		 M50.311,145.774h22.024l-22.024,22.024V145.774z M50.311,176.333h22.024l-22.024,22.023V176.333z M75.87,179.869v22.023H53.846
		L75.87,179.869z M75.87,110.216H53.846L75.87,88.192V110.216z M80.87,54.098h22.024L80.87,76.121V54.098z M72.335,54.098
		L50.311,76.121V54.098H72.335z M51.856,49.098l11.235-22.469l11.234,22.469H51.856z M75.87,57.633v22.023H53.846L75.87,57.633z
		 M106.429,57.633v22.023H84.405L106.429,57.633z M111.429,54.098h22.023l-22.023,22.023V54.098z M136.988,57.633v22.023h-22.023
		L136.988,57.633z M141.988,54.098h22.024l-22.024,22.023V54.098z M167.547,57.633v22.023h-22.024L167.547,57.633z M172.547,54.098
		h22.023l-22.023,22.023V54.098z M79.915,49.098L67.676,24.619l110.156,24.479C165.939,49.098,91.541,49.098,79.915,49.098z
		 M46.266,49.098H25.509l31.136-20.757L46.266,49.098z M19.752,54.098h22.023L19.752,76.121V54.098z M45.311,57.633v22.023H23.288
		L45.311,57.633z M72.335,84.657l-22.024,22.024V84.657H72.335z M50.311,206.892h22.024l-22.024,22.024V206.892z M169.787,213.223
		c11.246,0,19.852,0,31.078,0v19.228h-31.078V213.223z M236.942,232.451h-31.078v-19.228c11.246,0,19.852,0,31.078,0V232.451z
		 M218.904,208.223h-15.539h-15.539v-19.228h31.078V208.223z M151.749,188.995h31.078v19.228c-11.246,0-19.852,0-31.078,0V188.995z
		 M133.71,213.223c11.246,0,19.832,0,31.077,0v19.228H133.71V213.223z M53.846,232.451l22.024-22.024v22.024H53.846z
		 M176.082,79.657l22.023-22.023v22.023H176.082z"/>
	<path d="M60.591,40.245v1.125c0,1.381,1.119,2.5,2.5,2.5s2.5-1.119,2.5-2.5v-1.125c0-1.381-1.119-2.5-2.5-2.5
		S60.591,38.864,60.591,40.245z"/>
	<path d="M160.125,193.995c-1.381,0-2.5,1.119-2.5,2.5v0.625c0,1.381,1.119,2.5,2.5,2.5s2.5-1.119,2.5-2.5v-0.625
		C162.625,195.114,161.506,193.995,160.125,193.995z"/>
	<path d="M210.125,199.308c1.381,0,2.5-1.119,2.5-2.5v-0.625c0-1.381-1.119-2.5-2.5-2.5s-2.5,1.119-2.5,2.5v0.625
		C207.625,198.188,208.744,199.308,210.125,199.308z"/>
	<path d="M173.375,203.745c1.381,0,2.5-1.119,2.5-2.5v-0.625c0-1.381-1.119-2.5-2.5-2.5s-2.5,1.119-2.5,2.5v0.625
		C170.875,202.626,171.994,203.745,173.375,203.745z"/>
	<path d="M180.5,131.514c-1.381,0-2.5,1.119-2.5,2.5v0.625c0,1.381,1.119,2.5,2.5,2.5s2.5-1.119,2.5-2.5v-0.625
		C183,132.633,181.881,131.514,180.5,131.514z"/>
	<path d="M147,215.433c-1.381,0-2.5,1.119-2.5,2.5v0.625c0,1.381,1.119,2.5,2.5,2.5s2.5-1.119,2.5-2.5v-0.625
		C149.5,216.552,148.381,215.433,147,215.433z"/>
	<path d="M191.875,215.745c-1.381,0-2.5,1.119-2.5,2.5v0.625c0,1.381,1.119,2.5,2.5,2.5s2.5-1.119,2.5-2.5v-0.625
		C194.375,216.864,193.256,215.745,191.875,215.745z"/>
	<path d="M198.625,203.433c1.381,0,2.5-1.119,2.5-2.5v-0.625c0-1.381-1.119-2.5-2.5-2.5s-2.5,1.119-2.5,2.5v0.625
		C196.125,202.313,197.244,203.433,198.625,203.433z"/>
	<path d="M217.625,215.745c-1.381,0-2.5,1.119-2.5,2.5v0.625c0,1.381,1.119,2.5,2.5,2.5s2.5-1.119,2.5-2.5v-0.625
		C220.125,216.864,219.006,215.745,217.625,215.745z"/>
</g>
</svg>
