<?xml version="1.0" standalone="no"?>
<!DOCTYPE svg PUBLIC "-//W3C//DTD SVG 20010904//EN"
 "http://www.w3.org/TR/2001/REC-SVG-20010904/DTD/svg10.dtd">
<svg version="1.0" xmlns="http://www.w3.org/2000/svg"
 width="287.000000pt" height="287.000000pt" viewBox="0 0 287.000000 287.000000"
 preserveAspectRatio="xMidYMid meet">
<metadata>
Created by potrace 1.11, written by Peter Selinger 2001-2013
</metadata>
<g transform="translate(0.000000,287.000000) scale(0.100000,-0.100000)"
fill="#000000" stroke="none">
<path d="M1226 2854 c-165 -26 -282 -63 -436 -140 -269 -133 -501 -363 -630
-624 -18 -36 -38 -76 -45 -90 -16 -31 -81 -243 -89 -290 -17 -102 -21 -147
-20 -275 0 -157 6 -214 33 -330 71 -295 237 -566 476 -772 167 -144 458 -280
662 -309 17 -2 52 -8 78 -13 46 -9 327 -7 375 2 14 2 45 8 69 11 23 4 54 11
67 16 13 5 24 8 24 5 0 -2 46 12 103 31 104 37 258 108 311 146 108 76 176
130 176 140 0 6 3 9 6 6 15 -16 263 274 264 309 0 6 4 13 9 15 12 4 110 198
115 228 1 3 9 25 18 50 53 140 73 276 72 480 0 155 -17 277 -51 380 -8 25 -17
56 -20 70 -2 13 -9 30 -15 37 -6 7 -8 13 -4 13 3 0 -23 57 -59 128 -109 215
-225 352 -442 522 -23 18 -128 84 -133 83 -3 0 -17 7 -31 17 -24 18 -211 97
-247 105 -9 2 -42 11 -72 20 -30 8 -71 17 -90 20 -19 2 -46 7 -60 10 -57 14
-327 13 -414 -1z"/>
</g>
</svg>
